<svg width="32" height="32" viewBox="0 0 32 32" fill="none" xmlns="http://www.w3.org/2000/svg">
<path d="M27.9995 21.2432L16.0041 19.4283L4.00061 21.2456L16.001 25.8259L27.9995 21.2432Z" fill="#B7CA9D"/>
<path d="M6.40247 21.0317L8.43019 21.6845L8.61496 21.4684V6.85506L8.43019 6.60547L6.40247 7.40434V21.0317" fill="#4B612C"/>
<path d="M15.6093 20.3857L8.43018 21.6844V6.60583L15.6093 8.26865V20.3857Z" fill="#759C3E"/>
<path d="M12.4082 22.941L9.61011 22.0526V3.4413L12.4082 2.00037L12.6531 2.27506V22.6337L12.4082 22.941" fill="#4B612C"/>
<path d="M21.9966 20.6242L12.4082 22.941V2L21.9966 5.84913V20.6242Z" fill="#759C3E"/>
<path d="M15.9968 25.6276L4.00061 21.2456V23.7872L15.9968 29.9648V25.6276" fill="#4B612C"/>
<path d="M27.9994 23.7841L15.9967 29.9647V25.6275L27.9994 21.2432V23.7841Z" fill="#759C3E"/>
<path d="M24.6283 17.0323H21.7197L13.4283 17.6142L16 18.1024L24.6283 17.0323Z" fill="#B7CA9D"/>
<path d="M13.4283 23.2323L15.9989 24.0265L16.0728 23.9445L16.0707 17.9729L15.9967 17.8997L13.4283 17.6141V23.2323" fill="#4B612C"/>
<path d="M24.6283 17.0323L15.9967 17.8994L15.9989 24.0266L24.6283 21.351V17.0323Z" fill="#759C3E"/>
</svg>
