<?xml version="1.0" standalone="no"?>
<!DOCTYPE svg PUBLIC "-//W3C//DTD SVG 20010904//EN"
 "http://www.w3.org/TR/2001/REC-SVG-20010904/DTD/svg10.dtd">
<svg version="1.0" xmlns="http://www.w3.org/2000/svg"
 width="225.000000pt" height="225.000000pt" viewBox="0 0 225.000000 225.000000"
 preserveAspectRatio="xMidYMid meet">

<g transform="translate(0.000000,225.000000) scale(0.100000,-0.100000)"
fill="#000000" stroke="none">
<path d="M482 1695 c4 -55 16 -120 31 -167 l25 -77 -29 -59 c-48 -101 -63
-175 -63 -302 1 -97 5 -128 27 -195 62 -187 184 -326 362 -411 328 -157 738
-16 903 311 45 90 66 185 67 300 0 122 -16 198 -64 297 l-28 59 24 67 c16 45
26 98 30 166 l6 100 -55 -47 c-30 -25 -79 -58 -110 -72 l-55 -25 -95 48 c-152
78 -293 105 -428 82 -88 -14 -207 -58 -272 -99 -38 -24 -52 -28 -76 -22 -48
14 -95 42 -151 89 l-54 46 5 -89z m837 9 c42 -14 107 -43 146 -65 68 -39 71
-40 113 -28 24 6 68 27 99 45 l55 34 -7 -57 c-7 -61 -40 -159 -56 -168 -5 -4
2 -25 15 -48 42 -72 77 -193 83 -286 17 -281 -169 -554 -438 -642 -63 -20 -94
-24 -204 -24 -110 0 -141 4 -204 24 -156 51 -300 178 -371 326 -92 191 -90
386 6 577 19 37 30 70 25 73 -16 9 -48 107 -55 167 l-7 57 55 -33 c30 -18 75
-39 100 -46 43 -12 46 -11 103 24 68 42 173 83 246 96 81 14 209 3 296 -26z"/>
<path d="M800 1511 c-141 -46 -215 -179 -175 -316 44 -152 212 -223 359 -151
140 68 179 252 81 380 -52 68 -187 113 -265 87z m91 -58 c2 -24 2 -25 6 -5 4
22 18 27 47 16 11 -4 14 -14 10 -33 -5 -24 -4 -25 9 -8 13 15 19 16 36 7 23
-12 27 -25 11 -35 -5 -3 -10 -11 -10 -17 0 -6 8 -4 18 6 18 15 19 15 30 -8 9
-21 8 -27 -11 -41 l-22 -16 27 6 c21 4 28 1 33 -16 8 -23 0 -35 -30 -42 -15
-4 -13 -5 8 -6 27 -1 33 -14 21 -44 -3 -9 -15 -13 -32 -10 -25 4 -25 3 -7 -8
11 -7 22 -13 24 -15 11 -9 -47 -78 -82 -98 -91 -52 -191 -39 -262 34 -35 36
-38 43 -27 61 12 19 11 20 -6 15 -16 -5 -20 -1 -24 24 -4 26 -2 30 19 30 14 0
21 4 18 10 -4 6 -14 9 -23 8 -9 -2 -17 3 -16 10 3 42 4 43 24 37 11 -4 20 -2
20 4 0 6 -7 11 -15 11 -17 0 -19 18 -5 40 8 12 13 13 30 2 23 -14 27 0 5 18
-14 11 -13 15 5 27 17 12 24 13 37 1 14 -11 15 -10 9 9 -5 16 -2 25 13 32 27
15 30 14 41 -11 8 -22 9 -22 9 5 1 23 5 27 31 27 26 0 30 -4 31 -27z"/>
<path d="M861 1344 c0 -11 3 -14 6 -6 3 7 2 16 -1 19 -3 4 -6 -2 -5 -13z"/>
<path d="M830 1300 c-11 -11 -20 -27 -20 -35 0 -18 35 -55 53 -55 24 0 57 31
57 55 0 24 -33 55 -57 55 -7 0 -22 -9 -33 -20z"/>
<path d="M1320 1505 c-105 -33 -170 -126 -170 -242 1 -83 33 -151 97 -199 99
-76 263 -61 340 30 120 142 61 360 -111 411 -60 18 -97 18 -156 0z m103 -52
c4 -27 4 -27 12 -5 13 39 62 21 50 -19 -8 -24 -8 -24 14 -5 20 18 23 19 38 3
16 -15 15 -18 -2 -38 l-20 -21 28 13 c24 11 30 11 38 -2 13 -21 11 -39 -6 -39
-8 0 -15 -4 -15 -10 0 -5 10 -9 23 -7 17 2 23 -4 25 -25 3 -24 0 -28 -25 -29
l-28 -2 28 -4 c20 -3 27 -10 27 -27 0 -30 -9 -37 -31 -25 -13 7 -19 6 -19 -1
0 -6 7 -13 15 -16 21 -9 19 -22 -11 -61 -82 -107 -255 -102 -338 10 -20 27
-20 29 -3 38 9 6 17 15 17 21 0 6 -6 5 -16 -3 -13 -10 -17 -10 -25 2 -16 25
-10 49 11 49 11 0 20 5 20 11 0 6 -9 9 -20 6 -17 -4 -20 0 -20 25 0 28 2 30
27 23 l27 -6 -23 18 c-20 16 -20 20 -8 38 13 16 17 17 31 6 19 -16 22 -1 4 17
-9 10 -8 16 5 29 13 13 20 15 29 5 18 -18 30 -14 19 7 -8 15 -6 20 15 30 20 9
26 8 31 -6 5 -14 8 -13 14 5 6 15 17 22 33 22 19 0 26 -6 29 -27z"/>
<path d="M1392 1365 c-1 -27 -9 -46 -22 -58 -24 -20 -26 -60 -4 -81 19 -20 34
-20 62 0 29 20 28 58 -2 82 -17 13 -26 32 -29 58 l-4 39 -1 -40z"/>
<path d="M590 905 c0 -22 4 -25 40 -25 l40 0 0 -60 0 -60 100 0 100 0 0 60 c0
47 3 60 15 60 12 0 15 -19 15 -115 l0 -115 105 0 105 0 0 115 c0 96 3 115 15
115 13 0 15 -22 15 -140 l0 -140 100 0 100 0 0 140 c0 133 1 140 20 140 16 0
20 -7 20 -38 l0 -37 98 1 97 1 3 36 c3 35 5 37 38 37 30 0 34 3 34 25 l0 25
-530 0 -530 0 0 -25z m240 -65 l0 -40 -60 0 -60 0 0 40 0 40 60 0 60 0 0 -40z
m240 -55 l0 -95 -65 0 -65 0 0 95 0 95 65 0 65 0 0 -95z m230 -25 l0 -120 -60
0 -60 0 0 120 0 120 60 0 60 0 0 -120z m240 105 c0 -12 -14 -15 -65 -15 -60 0
-75 6 -58 23 3 4 33 7 65 7 45 0 58 -3 58 -15z"/>
</g>
</svg>
